M48
INCH,TZ
T1C0.0140
T2C0.0177
T3C0.0300
T4C0.0315
T5C0.0394
T6C0.1382
%
G90
G05
T1
X51384Y-45350
X51425Y-32319
X52600Y-33550
X53600Y-33550
X54600Y-33550
X55600Y-33550
X56157Y-30469
X56600Y-33550
X58094Y-26130
X58325Y-28275
X58425Y-30750
X58500Y-33550
X58600Y-22950
X58870Y-26795
X59323Y-26523
X59600Y-33550
X59700Y-22950
X59815Y-26138
X60067Y-26866
X60496Y-26771
X60600Y-33550
X61600Y-33550
X61700Y-27726
X61713Y-22665
X62275Y-31325
X62291Y-28398
X62400Y-24400
X62445Y-27205
X62550Y-26700
X62600Y-33550
X63200Y-25300
X63600Y-33550
X64050Y-22900
X64220Y-23909
X64400Y-25852
X64600Y-24400
X64729Y-22221
T2
X49000Y-33390
X49575Y-32800
X57498Y-31102
X57900Y-34750
X58201Y-26846
X60429Y-27240
X60490Y-25700
X62265Y-24068
T3
X47519Y-44109
X47519Y-45408
X48503Y-44109
X48503Y-45408
X49487Y-44109
X49487Y-45408
X53504Y-44099
X53504Y-45398
X54488Y-44099
X54488Y-45398
X55472Y-44099
X55472Y-45398
X56170Y-20820
X57170Y-20820
X58170Y-20820
X59151Y-28543
X59151Y-31102
X59170Y-20820
X59545Y-29331
X59545Y-30315
X59938Y-28543
X59938Y-31102
X60170Y-20820
X60332Y-29331
X60332Y-30315
X60726Y-28543
X60726Y-31102
X61120Y-29331
X61120Y-30315
X61170Y-20820
X61513Y-28543
X61513Y-31102
X62694Y-29331
X62694Y-30315
X63088Y-28543
X63088Y-31102
X63482Y-29331
X63482Y-30315
X63875Y-28543
X63875Y-31102
X64269Y-29331
X64269Y-30315
X64663Y-28543
X64663Y-31102
X65057Y-29331
X65057Y-30315
X65450Y-28543
X65450Y-31102
X65844Y-29331
X65844Y-30315
X66238Y-28543
X66238Y-31102
X66631Y-29331
X66631Y-30315
T4
X47400Y-33457
X47400Y-37457
X67126Y-33457
X67126Y-37457
T5
X50394Y-34236
X50394Y-35236
X50394Y-36697
X50394Y-37697
X51394Y-34236
X51394Y-35236
X51394Y-36697
X51394Y-37697
X52394Y-34236
X52394Y-35236
X52394Y-36697
X52394Y-37697
X53394Y-34236
X53394Y-35236
X53394Y-36697
X53394Y-37697
X54394Y-34236
X54394Y-35236
X54394Y-36697
X54394Y-37697
X55394Y-34236
X55394Y-35236
X55394Y-36697
X55394Y-37697
X56394Y-34236
X56394Y-35236
X56394Y-36697
X56394Y-37697
X57250Y-24140
X57250Y-25140
X57250Y-26140
X57394Y-34236
X57394Y-35236
X57394Y-36697
X57394Y-37697
X58394Y-34236
X58394Y-35236
X58394Y-36697
X58394Y-37697
X59394Y-34236
X59394Y-35236
X59394Y-36697
X59394Y-37697
X60394Y-34236
X60394Y-35236
X60394Y-36697
X60394Y-37697
X61394Y-34236
X61394Y-35236
X61394Y-36697
X61394Y-37697
X62394Y-34236
X62394Y-35236
X62394Y-36697
X62394Y-37697
X63394Y-34236
X63394Y-35236
X63394Y-36697
X63394Y-37697
X64394Y-34236
X64394Y-35236
X64394Y-36697
X64394Y-37697
X69657Y-24140
X69657Y-25140
X69657Y-26140
T6
X44306Y-21315
X44306Y-47185
X70176Y-21315
X70176Y-47185
T0
M30
