G04 #@! TF.GenerationSoftware,KiCad,Pcbnew,(5.1.9)-1*
G04 #@! TF.CreationDate,2021-08-17T23:34:33-04:00*
G04 #@! TF.ProjectId,swadge-programmer,73776164-6765-42d7-9072-6f6772616d6d,rev?*
G04 #@! TF.SameCoordinates,Original*
G04 #@! TF.FileFunction,Paste,Top*
G04 #@! TF.FilePolarity,Positive*
%FSLAX46Y46*%
G04 Gerber Fmt 4.6, Leading zero omitted, Abs format (unit mm)*
G04 Created by KiCad (PCBNEW (5.1.9)-1) date 2021-08-17 23:34:33*
%MOMM*%
%LPD*%
G01*
G04 APERTURE LIST*
%ADD10R,1.175000X1.900000*%
%ADD11R,2.375000X1.900000*%
%ADD12R,1.475000X2.100000*%
%ADD13R,0.450000X1.380000*%
%ADD14R,1.000000X1.400000*%
%ADD15R,1.200000X1.400000*%
%ADD16R,1.400000X2.100000*%
G04 APERTURE END LIST*
G36*
G01*
X160403250Y-60661000D02*
X159890750Y-60661000D01*
G75*
G02*
X159672000Y-60442250I0J218750D01*
G01*
X159672000Y-60004750D01*
G75*
G02*
X159890750Y-59786000I218750J0D01*
G01*
X160403250Y-59786000D01*
G75*
G02*
X160622000Y-60004750I0J-218750D01*
G01*
X160622000Y-60442250D01*
G75*
G02*
X160403250Y-60661000I-218750J0D01*
G01*
G37*
G36*
G01*
X160403250Y-59086000D02*
X159890750Y-59086000D01*
G75*
G02*
X159672000Y-58867250I0J218750D01*
G01*
X159672000Y-58429750D01*
G75*
G02*
X159890750Y-58211000I218750J0D01*
G01*
X160403250Y-58211000D01*
G75*
G02*
X160622000Y-58429750I0J-218750D01*
G01*
X160622000Y-58867250D01*
G75*
G02*
X160403250Y-59086000I-218750J0D01*
G01*
G37*
G36*
G01*
X158879250Y-60661000D02*
X158366750Y-60661000D01*
G75*
G02*
X158148000Y-60442250I0J218750D01*
G01*
X158148000Y-60004750D01*
G75*
G02*
X158366750Y-59786000I218750J0D01*
G01*
X158879250Y-59786000D01*
G75*
G02*
X159098000Y-60004750I0J-218750D01*
G01*
X159098000Y-60442250D01*
G75*
G02*
X158879250Y-60661000I-218750J0D01*
G01*
G37*
G36*
G01*
X158879250Y-59086000D02*
X158366750Y-59086000D01*
G75*
G02*
X158148000Y-58867250I0J218750D01*
G01*
X158148000Y-58429750D01*
G75*
G02*
X158366750Y-58211000I218750J0D01*
G01*
X158879250Y-58211000D01*
G75*
G02*
X159098000Y-58429750I0J-218750D01*
G01*
X159098000Y-58867250D01*
G75*
G02*
X158879250Y-59086000I-218750J0D01*
G01*
G37*
G36*
G01*
X157435000Y-60703750D02*
X157435000Y-61216250D01*
G75*
G02*
X157216250Y-61435000I-218750J0D01*
G01*
X156778750Y-61435000D01*
G75*
G02*
X156560000Y-61216250I0J218750D01*
G01*
X156560000Y-60703750D01*
G75*
G02*
X156778750Y-60485000I218750J0D01*
G01*
X157216250Y-60485000D01*
G75*
G02*
X157435000Y-60703750I0J-218750D01*
G01*
G37*
G36*
G01*
X155860000Y-60703750D02*
X155860000Y-61216250D01*
G75*
G02*
X155641250Y-61435000I-218750J0D01*
G01*
X155203750Y-61435000D01*
G75*
G02*
X154985000Y-61216250I0J218750D01*
G01*
X154985000Y-60703750D01*
G75*
G02*
X155203750Y-60485000I218750J0D01*
G01*
X155641250Y-60485000D01*
G75*
G02*
X155860000Y-60703750I0J-218750D01*
G01*
G37*
G36*
G01*
X157435000Y-62227750D02*
X157435000Y-62740250D01*
G75*
G02*
X157216250Y-62959000I-218750J0D01*
G01*
X156778750Y-62959000D01*
G75*
G02*
X156560000Y-62740250I0J218750D01*
G01*
X156560000Y-62227750D01*
G75*
G02*
X156778750Y-62009000I218750J0D01*
G01*
X157216250Y-62009000D01*
G75*
G02*
X157435000Y-62227750I0J-218750D01*
G01*
G37*
G36*
G01*
X155860000Y-62227750D02*
X155860000Y-62740250D01*
G75*
G02*
X155641250Y-62959000I-218750J0D01*
G01*
X155203750Y-62959000D01*
G75*
G02*
X154985000Y-62740250I0J218750D01*
G01*
X154985000Y-62227750D01*
G75*
G02*
X155203750Y-62009000I218750J0D01*
G01*
X155641250Y-62009000D01*
G75*
G02*
X155860000Y-62227750I0J-218750D01*
G01*
G37*
D10*
X162609000Y-51505000D03*
X164289000Y-51505000D03*
D11*
X160539000Y-51505000D03*
X166359000Y-51505000D03*
D12*
X160986500Y-53805000D03*
X165911500Y-53805000D03*
D13*
X162149000Y-54165000D03*
X162799000Y-54165000D03*
X163449000Y-54165000D03*
X164099000Y-54165000D03*
X164749000Y-54165000D03*
G36*
G01*
X154985000Y-64264250D02*
X154985000Y-63751750D01*
G75*
G02*
X155203750Y-63533000I218750J0D01*
G01*
X155641250Y-63533000D01*
G75*
G02*
X155860000Y-63751750I0J-218750D01*
G01*
X155860000Y-64264250D01*
G75*
G02*
X155641250Y-64483000I-218750J0D01*
G01*
X155203750Y-64483000D01*
G75*
G02*
X154985000Y-64264250I0J218750D01*
G01*
G37*
G36*
G01*
X156560000Y-64264250D02*
X156560000Y-63751750D01*
G75*
G02*
X156778750Y-63533000I218750J0D01*
G01*
X157216250Y-63533000D01*
G75*
G02*
X157435000Y-63751750I0J-218750D01*
G01*
X157435000Y-64264250D01*
G75*
G02*
X157216250Y-64483000I-218750J0D01*
G01*
X156778750Y-64483000D01*
G75*
G02*
X156560000Y-64264250I0J218750D01*
G01*
G37*
G36*
G01*
X157435000Y-65275750D02*
X157435000Y-65788250D01*
G75*
G02*
X157216250Y-66007000I-218750J0D01*
G01*
X156778750Y-66007000D01*
G75*
G02*
X156560000Y-65788250I0J218750D01*
G01*
X156560000Y-65275750D01*
G75*
G02*
X156778750Y-65057000I218750J0D01*
G01*
X157216250Y-65057000D01*
G75*
G02*
X157435000Y-65275750I0J-218750D01*
G01*
G37*
G36*
G01*
X155860000Y-65275750D02*
X155860000Y-65788250D01*
G75*
G02*
X155641250Y-66007000I-218750J0D01*
G01*
X155203750Y-66007000D01*
G75*
G02*
X154985000Y-65788250I0J218750D01*
G01*
X154985000Y-65275750D01*
G75*
G02*
X155203750Y-65057000I218750J0D01*
G01*
X155641250Y-65057000D01*
G75*
G02*
X155860000Y-65275750I0J-218750D01*
G01*
G37*
G36*
G01*
X157435000Y-66799750D02*
X157435000Y-67312250D01*
G75*
G02*
X157216250Y-67531000I-218750J0D01*
G01*
X156778750Y-67531000D01*
G75*
G02*
X156560000Y-67312250I0J218750D01*
G01*
X156560000Y-66799750D01*
G75*
G02*
X156778750Y-66581000I218750J0D01*
G01*
X157216250Y-66581000D01*
G75*
G02*
X157435000Y-66799750I0J-218750D01*
G01*
G37*
G36*
G01*
X155860000Y-66799750D02*
X155860000Y-67312250D01*
G75*
G02*
X155641250Y-67531000I-218750J0D01*
G01*
X155203750Y-67531000D01*
G75*
G02*
X154985000Y-67312250I0J218750D01*
G01*
X154985000Y-66799750D01*
G75*
G02*
X155203750Y-66581000I218750J0D01*
G01*
X155641250Y-66581000D01*
G75*
G02*
X155860000Y-66799750I0J-218750D01*
G01*
G37*
D14*
X165293000Y-57828000D03*
X167193000Y-57828000D03*
X167193000Y-60028000D03*
D15*
X165473000Y-60028000D03*
G36*
G01*
X162054497Y-62901195D02*
X162754497Y-62901195D01*
G75*
G02*
X162816997Y-62963695I0J-62500D01*
G01*
X162816997Y-63088695D01*
G75*
G02*
X162754497Y-63151195I-62500J0D01*
G01*
X162054497Y-63151195D01*
G75*
G02*
X161991997Y-63088695I0J62500D01*
G01*
X161991997Y-62963695D01*
G75*
G02*
X162054497Y-62901195I62500J0D01*
G01*
G37*
G36*
G01*
X162054497Y-63401195D02*
X162754497Y-63401195D01*
G75*
G02*
X162816997Y-63463695I0J-62500D01*
G01*
X162816997Y-63588695D01*
G75*
G02*
X162754497Y-63651195I-62500J0D01*
G01*
X162054497Y-63651195D01*
G75*
G02*
X161991997Y-63588695I0J62500D01*
G01*
X161991997Y-63463695D01*
G75*
G02*
X162054497Y-63401195I62500J0D01*
G01*
G37*
G36*
G01*
X162054497Y-63901195D02*
X162754497Y-63901195D01*
G75*
G02*
X162816997Y-63963695I0J-62500D01*
G01*
X162816997Y-64088695D01*
G75*
G02*
X162754497Y-64151195I-62500J0D01*
G01*
X162054497Y-64151195D01*
G75*
G02*
X161991997Y-64088695I0J62500D01*
G01*
X161991997Y-63963695D01*
G75*
G02*
X162054497Y-63901195I62500J0D01*
G01*
G37*
G36*
G01*
X162054497Y-64401195D02*
X162754497Y-64401195D01*
G75*
G02*
X162816997Y-64463695I0J-62500D01*
G01*
X162816997Y-64588695D01*
G75*
G02*
X162754497Y-64651195I-62500J0D01*
G01*
X162054497Y-64651195D01*
G75*
G02*
X161991997Y-64588695I0J62500D01*
G01*
X161991997Y-64463695D01*
G75*
G02*
X162054497Y-64401195I62500J0D01*
G01*
G37*
G36*
G01*
X162054497Y-64901195D02*
X162754497Y-64901195D01*
G75*
G02*
X162816997Y-64963695I0J-62500D01*
G01*
X162816997Y-65088695D01*
G75*
G02*
X162754497Y-65151195I-62500J0D01*
G01*
X162054497Y-65151195D01*
G75*
G02*
X161991997Y-65088695I0J62500D01*
G01*
X161991997Y-64963695D01*
G75*
G02*
X162054497Y-64901195I62500J0D01*
G01*
G37*
G36*
G01*
X162054497Y-65401195D02*
X162754497Y-65401195D01*
G75*
G02*
X162816997Y-65463695I0J-62500D01*
G01*
X162816997Y-65588695D01*
G75*
G02*
X162754497Y-65651195I-62500J0D01*
G01*
X162054497Y-65651195D01*
G75*
G02*
X161991997Y-65588695I0J62500D01*
G01*
X161991997Y-65463695D01*
G75*
G02*
X162054497Y-65401195I62500J0D01*
G01*
G37*
G36*
G01*
X161654497Y-65801195D02*
X161779497Y-65801195D01*
G75*
G02*
X161841997Y-65863695I0J-62500D01*
G01*
X161841997Y-66563695D01*
G75*
G02*
X161779497Y-66626195I-62500J0D01*
G01*
X161654497Y-66626195D01*
G75*
G02*
X161591997Y-66563695I0J62500D01*
G01*
X161591997Y-65863695D01*
G75*
G02*
X161654497Y-65801195I62500J0D01*
G01*
G37*
G36*
G01*
X161154497Y-65801195D02*
X161279497Y-65801195D01*
G75*
G02*
X161341997Y-65863695I0J-62500D01*
G01*
X161341997Y-66563695D01*
G75*
G02*
X161279497Y-66626195I-62500J0D01*
G01*
X161154497Y-66626195D01*
G75*
G02*
X161091997Y-66563695I0J62500D01*
G01*
X161091997Y-65863695D01*
G75*
G02*
X161154497Y-65801195I62500J0D01*
G01*
G37*
G36*
G01*
X160654497Y-65801195D02*
X160779497Y-65801195D01*
G75*
G02*
X160841997Y-65863695I0J-62500D01*
G01*
X160841997Y-66563695D01*
G75*
G02*
X160779497Y-66626195I-62500J0D01*
G01*
X160654497Y-66626195D01*
G75*
G02*
X160591997Y-66563695I0J62500D01*
G01*
X160591997Y-65863695D01*
G75*
G02*
X160654497Y-65801195I62500J0D01*
G01*
G37*
G36*
G01*
X160154497Y-65801195D02*
X160279497Y-65801195D01*
G75*
G02*
X160341997Y-65863695I0J-62500D01*
G01*
X160341997Y-66563695D01*
G75*
G02*
X160279497Y-66626195I-62500J0D01*
G01*
X160154497Y-66626195D01*
G75*
G02*
X160091997Y-66563695I0J62500D01*
G01*
X160091997Y-65863695D01*
G75*
G02*
X160154497Y-65801195I62500J0D01*
G01*
G37*
G36*
G01*
X159654497Y-65801195D02*
X159779497Y-65801195D01*
G75*
G02*
X159841997Y-65863695I0J-62500D01*
G01*
X159841997Y-66563695D01*
G75*
G02*
X159779497Y-66626195I-62500J0D01*
G01*
X159654497Y-66626195D01*
G75*
G02*
X159591997Y-66563695I0J62500D01*
G01*
X159591997Y-65863695D01*
G75*
G02*
X159654497Y-65801195I62500J0D01*
G01*
G37*
G36*
G01*
X159154497Y-65801195D02*
X159279497Y-65801195D01*
G75*
G02*
X159341997Y-65863695I0J-62500D01*
G01*
X159341997Y-66563695D01*
G75*
G02*
X159279497Y-66626195I-62500J0D01*
G01*
X159154497Y-66626195D01*
G75*
G02*
X159091997Y-66563695I0J62500D01*
G01*
X159091997Y-65863695D01*
G75*
G02*
X159154497Y-65801195I62500J0D01*
G01*
G37*
G36*
G01*
X158179497Y-65401195D02*
X158879497Y-65401195D01*
G75*
G02*
X158941997Y-65463695I0J-62500D01*
G01*
X158941997Y-65588695D01*
G75*
G02*
X158879497Y-65651195I-62500J0D01*
G01*
X158179497Y-65651195D01*
G75*
G02*
X158116997Y-65588695I0J62500D01*
G01*
X158116997Y-65463695D01*
G75*
G02*
X158179497Y-65401195I62500J0D01*
G01*
G37*
G36*
G01*
X158179497Y-64901195D02*
X158879497Y-64901195D01*
G75*
G02*
X158941997Y-64963695I0J-62500D01*
G01*
X158941997Y-65088695D01*
G75*
G02*
X158879497Y-65151195I-62500J0D01*
G01*
X158179497Y-65151195D01*
G75*
G02*
X158116997Y-65088695I0J62500D01*
G01*
X158116997Y-64963695D01*
G75*
G02*
X158179497Y-64901195I62500J0D01*
G01*
G37*
G36*
G01*
X158179497Y-64401195D02*
X158879497Y-64401195D01*
G75*
G02*
X158941997Y-64463695I0J-62500D01*
G01*
X158941997Y-64588695D01*
G75*
G02*
X158879497Y-64651195I-62500J0D01*
G01*
X158179497Y-64651195D01*
G75*
G02*
X158116997Y-64588695I0J62500D01*
G01*
X158116997Y-64463695D01*
G75*
G02*
X158179497Y-64401195I62500J0D01*
G01*
G37*
G36*
G01*
X158179497Y-63901195D02*
X158879497Y-63901195D01*
G75*
G02*
X158941997Y-63963695I0J-62500D01*
G01*
X158941997Y-64088695D01*
G75*
G02*
X158879497Y-64151195I-62500J0D01*
G01*
X158179497Y-64151195D01*
G75*
G02*
X158116997Y-64088695I0J62500D01*
G01*
X158116997Y-63963695D01*
G75*
G02*
X158179497Y-63901195I62500J0D01*
G01*
G37*
G36*
G01*
X158179497Y-63401195D02*
X158879497Y-63401195D01*
G75*
G02*
X158941997Y-63463695I0J-62500D01*
G01*
X158941997Y-63588695D01*
G75*
G02*
X158879497Y-63651195I-62500J0D01*
G01*
X158179497Y-63651195D01*
G75*
G02*
X158116997Y-63588695I0J62500D01*
G01*
X158116997Y-63463695D01*
G75*
G02*
X158179497Y-63401195I62500J0D01*
G01*
G37*
G36*
G01*
X158179497Y-62901195D02*
X158879497Y-62901195D01*
G75*
G02*
X158941997Y-62963695I0J-62500D01*
G01*
X158941997Y-63088695D01*
G75*
G02*
X158879497Y-63151195I-62500J0D01*
G01*
X158179497Y-63151195D01*
G75*
G02*
X158116997Y-63088695I0J62500D01*
G01*
X158116997Y-62963695D01*
G75*
G02*
X158179497Y-62901195I62500J0D01*
G01*
G37*
G36*
G01*
X159154497Y-61926195D02*
X159279497Y-61926195D01*
G75*
G02*
X159341997Y-61988695I0J-62500D01*
G01*
X159341997Y-62688695D01*
G75*
G02*
X159279497Y-62751195I-62500J0D01*
G01*
X159154497Y-62751195D01*
G75*
G02*
X159091997Y-62688695I0J62500D01*
G01*
X159091997Y-61988695D01*
G75*
G02*
X159154497Y-61926195I62500J0D01*
G01*
G37*
G36*
G01*
X159654497Y-61926195D02*
X159779497Y-61926195D01*
G75*
G02*
X159841997Y-61988695I0J-62500D01*
G01*
X159841997Y-62688695D01*
G75*
G02*
X159779497Y-62751195I-62500J0D01*
G01*
X159654497Y-62751195D01*
G75*
G02*
X159591997Y-62688695I0J62500D01*
G01*
X159591997Y-61988695D01*
G75*
G02*
X159654497Y-61926195I62500J0D01*
G01*
G37*
G36*
G01*
X160154497Y-61926195D02*
X160279497Y-61926195D01*
G75*
G02*
X160341997Y-61988695I0J-62500D01*
G01*
X160341997Y-62688695D01*
G75*
G02*
X160279497Y-62751195I-62500J0D01*
G01*
X160154497Y-62751195D01*
G75*
G02*
X160091997Y-62688695I0J62500D01*
G01*
X160091997Y-61988695D01*
G75*
G02*
X160154497Y-61926195I62500J0D01*
G01*
G37*
G36*
G01*
X160654497Y-61926195D02*
X160779497Y-61926195D01*
G75*
G02*
X160841997Y-61988695I0J-62500D01*
G01*
X160841997Y-62688695D01*
G75*
G02*
X160779497Y-62751195I-62500J0D01*
G01*
X160654497Y-62751195D01*
G75*
G02*
X160591997Y-62688695I0J62500D01*
G01*
X160591997Y-61988695D01*
G75*
G02*
X160654497Y-61926195I62500J0D01*
G01*
G37*
G36*
G01*
X161154497Y-61926195D02*
X161279497Y-61926195D01*
G75*
G02*
X161341997Y-61988695I0J-62500D01*
G01*
X161341997Y-62688695D01*
G75*
G02*
X161279497Y-62751195I-62500J0D01*
G01*
X161154497Y-62751195D01*
G75*
G02*
X161091997Y-62688695I0J62500D01*
G01*
X161091997Y-61988695D01*
G75*
G02*
X161154497Y-61926195I62500J0D01*
G01*
G37*
G36*
G01*
X161654497Y-61926195D02*
X161779497Y-61926195D01*
G75*
G02*
X161841997Y-61988695I0J-62500D01*
G01*
X161841997Y-62688695D01*
G75*
G02*
X161779497Y-62751195I-62500J0D01*
G01*
X161654497Y-62751195D01*
G75*
G02*
X161591997Y-62688695I0J62500D01*
G01*
X161591997Y-61988695D01*
G75*
G02*
X161654497Y-61926195I62500J0D01*
G01*
G37*
G36*
G01*
X159541996Y-64401195D02*
X160091998Y-64401195D01*
G75*
G02*
X160341997Y-64651194I0J-249999D01*
G01*
X160341997Y-65201196D01*
G75*
G02*
X160091998Y-65451195I-249999J0D01*
G01*
X159541996Y-65451195D01*
G75*
G02*
X159291997Y-65201196I0J249999D01*
G01*
X159291997Y-64651194D01*
G75*
G02*
X159541996Y-64401195I249999J0D01*
G01*
G37*
G36*
G01*
X160841996Y-64401195D02*
X161391998Y-64401195D01*
G75*
G02*
X161641997Y-64651194I0J-249999D01*
G01*
X161641997Y-65201196D01*
G75*
G02*
X161391998Y-65451195I-249999J0D01*
G01*
X160841996Y-65451195D01*
G75*
G02*
X160591997Y-65201196I0J249999D01*
G01*
X160591997Y-64651194D01*
G75*
G02*
X160841996Y-64401195I249999J0D01*
G01*
G37*
G36*
G01*
X159541996Y-63101195D02*
X160091998Y-63101195D01*
G75*
G02*
X160341997Y-63351194I0J-249999D01*
G01*
X160341997Y-63901196D01*
G75*
G02*
X160091998Y-64151195I-249999J0D01*
G01*
X159541996Y-64151195D01*
G75*
G02*
X159291997Y-63901196I0J249999D01*
G01*
X159291997Y-63351194D01*
G75*
G02*
X159541996Y-63101195I249999J0D01*
G01*
G37*
G36*
G01*
X160841996Y-63101195D02*
X161391998Y-63101195D01*
G75*
G02*
X161641997Y-63351194I0J-249999D01*
G01*
X161641997Y-63901196D01*
G75*
G02*
X161391998Y-64151195I-249999J0D01*
G01*
X160841996Y-64151195D01*
G75*
G02*
X160591997Y-63901196I0J249999D01*
G01*
X160591997Y-63351194D01*
G75*
G02*
X160841996Y-63101195I249999J0D01*
G01*
G37*
D16*
X170955000Y-109242000D03*
X170955000Y-118342000D03*
X166405000Y-109242000D03*
X166405000Y-118342000D03*
X162319000Y-109242000D03*
X162319000Y-118342000D03*
X157769000Y-109242000D03*
X157769000Y-118342000D03*
X149133000Y-118342000D03*
X149133000Y-109242000D03*
X153683000Y-118342000D03*
X153683000Y-109242000D03*
M02*
